<svg xmlns="http://www.w3.org/2000/svg" fill="none" stroke="#6c3c2a" stroke-linecap="square" stroke-width="16"
     viewBox="-256 -256 512 512">
    <defs>
        <linearGradient id="b" gradientTransform="rotate(-45)">
            <stop offset="0%" stop-color="#d86c90"/>
            <stop offset="50%" stop-color="#ffb45a"/>
        </linearGradient>
        <clipPath id="a">
            <circle r="256" fill="#d8b490" stroke="none"/>
        </clipPath>
    </defs>
    <g clip-path="url(#a)">
        <path fill="#d8b490" stroke="none" d="M-256-256h512v512h-512z"/>
        <circle r="16" fill="#deb420" stroke="#a25420" stroke-width="8"/>
        <path d="m57.28 23.726 42.96 17.795m0 0a108.5 108.5 0 0 1-23.519 35.2M43.84 43.84a62 62 0 0 1-20.114 13.44M0 62v46.5m23.726-51.22A62 62 0 0 1 0 62m41.521 38.24A108.5 108.5 0 0 1 0 108.5M0 62a62 62 0 0 1-23.726-4.72M0 108.5a108.5 108.5 0 0 1-41.521-8.26m17.795-42.96a62 62 0 0 1-20.115-13.44M-57.28 23.726l-42.96 17.795M-62 0h-46.5m0 0a108.5 108.5 0 0 1 8.26-41.521m56.4-2.319-32.881-32.881M-43.84-43.84a62 62 0 0 1 20.114-13.44m-52.995-19.441a108.5 108.5 0 0 1 35.2-23.52m17.795 42.961A62 62 0 0 1 0-62m-41.521-38.24A108.5 108.5 0 0 1 0-108.5m0 0a108.5 108.5 0 0 1 41.521 8.26M57.28-23.726A62 62 0 0 1 62 0m38.24-41.521A108.5 108.5 0 0 1 108.5 0m34.701 59.316a155 155 0 0 1-33.6 50.286m-68.08-9.362 17.795 42.961m50.286-33.599a155 155 0 0 1-50.286 33.6M-76.721 76.721l-32.88 32.88m-.001.001a155 155 0 0 1-33.6-50.286M-108.5 0H-155m11.799 59.316A155 155 0 0 1-155 0m0 0a155 155 0 0 1 11.799-59.316M76.721-76.721l32.88-32.88m-9.361 68.08 42.961-17.795M155 0h46.5M0 155v46.5m-59.316-58.299-17.795 42.96M0 201.5a201.5 201.5 0 0 1-77.11-15.338m0 0a201.5 201.5 0 0 1-65.372-43.68M-155 0h-46.5m15.338 77.11A201.5 201.5 0 0 1-201.5 0m58.299-59.316-42.96-17.795m76.559-32.491-32.88-32.88m83.166-.719-17.795-42.96m-65.371 43.679a201.5 201.5 0 0 1 65.371-43.68M0-155v-46.5m-77.11 15.338A201.5 201.5 0 0 1 0-201.5m59.316 58.299 17.795-42.96m32.491 76.559 32.88-32.88m-65.372-43.68a201.5 201.5 0 0 1 65.372 43.68m.719 83.166 42.96-17.795m-43.679-65.371a201.5 201.5 0 0 1 43.68 65.371M155 0h46.5m-15.338-77.11A201.5 201.5 0 0 1 201.5 0m-15.338 77.11 42.96 17.795M248 0a248 248 0 0 1-18.878 94.905m-86.64 47.577 32.88 32.88m53.76-80.457a248 248 0 0 1-53.76 80.457m-98.252 10.8 17.795 42.96m80.457-53.76a248 248 0 0 1-80.457 53.76m0 0A248 248 0 0 1 0 248m-77.11-61.838-17.795 42.96M0 248a248 248 0 0 1-94.905-18.878m0 0a248 248 0 0 1-80.457-53.76m0 0a248 248 0 0 1-53.76-80.457m0 0A248 248 0 0 1-248 0m61.838-77.11-42.96-17.795M-248 0a248 248 0 0 1 18.878-94.905m0 0a248 248 0 0 1 53.76-80.457m98.252-10.8-17.795-42.96m-80.457 53.76a248 248 0 0 1 80.457-53.76m0 0A248 248 0 0 1 0-248m77.11 61.838 17.795-42.96M0-248a248 248 0 0 1 94.905 18.878m0 0a248 248 0 0 1 80.457 53.76m53.76 80.457A248 248 0 0 1 248 0"/>
        <path fill="url(#b)" stroke="none" d="M-256-256h512v512h-512z" opacity=".5" style="mix-blend-mode:screen"/>
        <path fill="url(#b)" stroke="none" d="M-256-256h512v512h-512z" opacity=".5" style="mix-blend-mode:overlay"/>
    </g>
</svg>